<svg width="27" height="35" viewBox="0 0 27 35" fill="none" xmlns="http://www.w3.org/2000/svg">
    <path d="M11.5347 34.2135C7.95712 29.8135 0 19.1492 0 13.1591C0 5.89142 5.89142 0 13.1591 0C20.4239 0 26.3181 5.89142 26.3181 13.1591C26.3181 19.1492 18.2993 29.8135 14.7834 34.2135C13.9404 35.2621 12.3777 35.2621 11.5347 34.2135ZM13.1591 17.5454C15.5784 17.5454 17.5454 15.5784 17.5454 13.1591C17.5454 10.7397 15.5784 8.7727 13.1591 8.7727C10.7397 8.7727 8.7727 10.7397 8.7727 13.1591C8.7727 15.5784 10.7397 17.5454 13.1591 17.5454Z" fill="black"/>
    </svg>
    