<svg width="18" height="18" viewBox="0 0 18 18" fill="none" xmlns="http://www.w3.org/2000/svg">
    <path d="M12.7649 0.659894C13.6447 -0.219965 15.0736 -0.219965 15.9535 0.659894L17.3401 2.04772C18.22 2.92729 18.22 4.35489 17.3401 5.23482L15.6367 6.93836L11.0615 2.36344L12.7649 0.659894ZM14.8413 7.73382L6.63407 15.9383C6.26806 16.3043 5.81405 16.5753 5.31782 16.7197L1.08291 17.9656C0.786579 18.0536 0.465962 17.9727 0.247406 17.7228C0.0288441 17.5362 -0.0528695 17.2159 0.0343414 16.9168L1.28 12.6825C1.42641 12.1863 1.69494 11.7322 2.06131 11.3662L10.2661 3.1596L14.8413 7.73382Z" fill="#495464"/>
    </svg>
    