<svg width="14" height="18" viewBox="0 0 14 18" fill="none" xmlns="http://www.w3.org/2000/svg">
    <path d="M9.33333 0V4.5H14L9.33333 0ZM8.16667 4.5V0H1.75C0.78349 0 0 0.755508 0 1.6875V16.3125C0 17.2441 0.78349 18 1.75 18H12.25C13.2165 18 14 17.2445 14 16.3125V5.625H9.36615C8.68802 5.625 8.16667 5.12227 8.16667 4.5ZM9.91667 14.625H4.08333C3.7625 14.625 3.5 14.3719 3.5 14.0625C3.5 13.7531 3.7625 13.5 4.08333 13.5H9.91667C10.2388 13.5 10.5 13.7518 10.5 14.0625C10.5 14.3719 10.2375 14.625 9.91667 14.625ZM9.91667 12.375H4.08333C3.7625 12.375 3.5 12.1219 3.5 11.8125C3.5 11.5031 3.7625 11.25 4.08333 11.25H9.91667C10.2388 11.25 10.5 11.5018 10.5 11.8125C10.5 12.1219 10.2375 12.375 9.91667 12.375ZM10.5 9.5625C10.5 9.87187 10.2375 10.125 9.91667 10.125H4.08333C3.7625 10.125 3.5 9.87187 3.5 9.5625C3.5 9.25313 3.7625 9 4.08333 9H9.91667C10.2375 9 10.5 9.25313 10.5 9.5625Z" fill="#495464"/>
    </svg>
    