<svg width="31" height="35" viewBox="0 0 31 35" fill="none" xmlns="http://www.w3.org/2000/svg">
    <path d="M5.46875 13.125V9.84375C5.46875 4.40713 9.87793 0 15.3125 0C20.7471 0 25.1562 4.40713 25.1562 9.84375V13.125H26.25C28.6631 13.125 30.625 15.0869 30.625 17.5V30.625C30.625 33.0381 28.6631 35 26.25 35H4.375C1.9585 35 0 33.0381 0 30.625V17.5C0 15.0869 1.9585 13.125 4.375 13.125H5.46875ZM9.84375 13.125H20.7812V9.84375C20.7812 6.82363 18.334 4.375 15.3125 4.375C12.291 4.375 9.84375 6.82363 9.84375 9.84375V13.125Z" fill="black"/>
    </svg>
    