<svg width="34" height="35" viewBox="0 0 34 35" fill="none" xmlns="http://www.w3.org/2000/svg">
    <path d="M34.9453 26.4555L33.356 33.3461C33.1327 34.3202 32.2766 35.0017 31.2737 35.0017C14.0273 35.0004 0 20.973 0 3.72599C0 2.72384 0.681475 1.86661 1.65566 1.64444L8.54629 0.0550898C9.5498 -0.177469 10.5752 0.343429 10.9922 1.29376L14.1723 8.71075C14.544 9.58438 14.2933 10.6023 13.5584 11.2024L9.87793 14.1576C12.2008 18.8895 16.048 22.7367 20.7812 25.0609L23.7945 21.3832C24.3884 20.6463 25.414 20.3913 26.2876 20.7697L33.7046 23.9491C34.5967 24.4184 35.1777 25.4574 34.9453 26.4555Z" fill="black"/>
    </svg>
    