<svg width="40" height="31" viewBox="0 0 40 31" fill="none" xmlns="http://www.w3.org/2000/svg">
<path d="M33.5347 26.1078C33.5347 26.5783 33.2153 26.9174 32.7569 26.9174C32.2847 26.9174 31.9792 26.5576 31.9792 26.1078C31.9792 25.658 32.2847 25.2982 32.7569 25.2982C33.2153 25.2982 33.5347 25.658 33.5347 26.1078ZM11.9514 25.2982C11.4583 25.2982 11.1736 25.658 11.1736 26.1078C11.1736 26.5576 11.4583 26.9174 11.9514 26.9174C12.4028 26.9174 12.7083 26.5783 12.7083 26.1078C12.7014 25.658 12.4028 25.2982 11.9514 25.2982ZM20.1111 25.2775C19.7361 25.2775 19.5069 25.5196 19.4514 25.8795H20.7778C20.7153 25.485 20.4722 25.2775 20.1111 25.2775ZM27.5972 25.2982C27.125 25.2982 26.8403 25.658 26.8403 26.1078C26.8403 26.5576 27.125 26.9174 27.5972 26.9174C28.0694 26.9174 28.375 26.5783 28.375 26.1078C28.375 25.658 28.0694 25.2982 27.5972 25.2982ZM34.9514 27.1042C34.9514 27.125 34.9722 27.1388 34.9722 27.1804C34.9722 27.2011 34.9514 27.215 34.9514 27.2565C34.9306 27.2772 34.9306 27.2911 34.9167 27.3118C34.8958 27.3326 34.8819 27.3464 34.8403 27.3464C34.8194 27.3672 34.8056 27.3672 34.7639 27.3672C34.7431 27.3672 34.7292 27.3672 34.6875 27.3464C34.6667 27.3464 34.6528 27.3257 34.6319 27.3118C34.6111 27.2911 34.5972 27.2772 34.5972 27.2565C34.5764 27.2219 34.5764 27.2011 34.5764 27.1804C34.5764 27.1458 34.5764 27.125 34.5972 27.1042C34.5972 27.0696 34.6181 27.0489 34.6319 27.0281C34.6528 27.0074 34.6667 27.0074 34.6875 26.9935C34.7222 26.9728 34.7431 26.9728 34.7639 26.9728C34.7986 26.9728 34.8194 26.9728 34.8403 26.9935C34.875 27.0143 34.8958 27.0143 34.9167 27.0281C34.9375 27.042 34.9306 27.0696 34.9514 27.1042ZM34.7986 27.2011C34.8333 27.2011 34.8333 27.1804 34.8542 27.1804C34.875 27.1596 34.875 27.1458 34.875 27.125C34.875 27.1042 34.875 27.0904 34.8542 27.0696C34.8333 27.0696 34.8194 27.0489 34.7778 27.0489H34.6667V27.2911H34.7222V27.1942H34.7431L34.8194 27.2911H34.875L34.7986 27.2011ZM40 3.32143V27.6786C40 29.5123 38.5069 31 36.6667 31H3.33333C1.49306 31 0 29.5123 0 27.6786V3.32143C0 1.48772 1.49306 0 3.33333 0H36.6667C38.5069 0 40 1.48772 40 3.32143ZM4.44444 12.9812C4.44444 18.2748 8.75694 22.565 14.0625 22.565C15.9514 22.565 17.8056 21.9975 19.375 20.9665C14.3125 16.8632 14.3472 9.12009 19.375 5.01674C17.8056 3.97879 15.9514 3.4183 14.0625 3.4183C8.75694 3.41138 4.44444 7.70848 4.44444 12.9812ZM20 20.5098C24.8958 16.704 24.875 9.28616 20 5.4596C15.125 9.28616 15.1042 16.7109 20 20.5098ZM10.1181 25.7895C10.1181 25.1875 9.72222 24.7931 9.09722 24.7723C8.77778 24.7723 8.4375 24.8692 8.20833 25.2221C8.04167 24.9384 7.75694 24.7723 7.36111 24.7723C7.09722 24.7723 6.83333 24.8692 6.625 25.146V24.8415H6.05556V27.381H6.625C6.625 26.0732 6.45139 25.2913 7.25 25.2913C7.95833 25.2913 7.81944 25.9971 7.81944 27.381H8.36806C8.36806 26.1147 8.19444 25.2913 8.99306 25.2913C9.70139 25.2913 9.5625 25.9833 9.5625 27.381H10.1319V25.7895H10.1181ZM13.2361 24.8415H12.6875V25.146C12.5 24.9176 12.2361 24.7723 11.875 24.7723C11.1597 24.7723 10.6111 25.3397 10.6111 26.1078C10.6111 26.8828 11.1597 27.4433 11.875 27.4433C12.2361 27.4433 12.5 27.3118 12.6875 27.0696V27.3879H13.2361V24.8415ZM16.0486 26.6129C16.0486 25.575 14.4583 26.0455 14.4583 25.5612C14.4583 25.1667 15.2847 25.229 15.7431 25.485L15.9722 25.0353C15.3194 24.6132 13.875 24.6201 13.875 25.6027C13.875 26.5922 15.4653 26.177 15.4653 26.6406C15.4653 27.0766 14.5278 27.042 14.0278 26.696L13.7847 27.1319C14.5625 27.6578 16.0486 27.5471 16.0486 26.6129ZM18.5069 27.2565L18.3542 26.7859C18.0903 26.9312 17.5069 27.0904 17.5069 26.5022V25.3536H18.4167V24.8415H17.5069V24.0665H16.9375V24.8415H16.4097V25.3466H16.9375V26.5022C16.9375 27.7201 18.1389 27.4987 18.5069 27.2565ZM19.4306 26.3292H21.3403C21.3403 25.2083 20.8264 24.7654 20.1319 24.7654C19.3958 24.7654 18.8681 25.3121 18.8681 26.1009C18.8681 27.5194 20.4375 27.7547 21.2153 27.0835L20.9514 26.6683C20.4097 27.1112 19.5903 27.0696 19.4306 26.3292ZM23.5347 24.8415C23.2153 24.7031 22.7292 24.717 22.4792 25.146V24.8415H21.9097V27.381H22.4792V25.9487C22.4792 25.146 23.1389 25.2498 23.3681 25.3674L23.5347 24.8415ZM24.2708 26.1078C24.2708 25.319 25.0764 25.0629 25.7083 25.5266L25.9722 25.0768C25.1667 24.4471 23.7014 24.7931 23.7014 26.1147C23.7014 27.4848 25.2569 27.7616 25.9722 27.1527L25.7083 26.7029C25.0694 27.1527 24.2708 26.8828 24.2708 26.1078ZM28.9028 24.8415H28.3333V25.146C27.7569 24.3848 26.2569 24.8138 26.2569 26.1078C26.2569 27.4364 27.8125 27.817 28.3333 27.0696V27.3879H28.9028V24.8415ZM31.2431 24.8415C31.0764 24.7585 30.4792 24.6408 30.1875 25.146V24.8415H29.6389V27.381H30.1875V25.9487C30.1875 25.1875 30.8125 25.2359 31.0764 25.3674L31.2431 24.8415ZM34.0417 23.8105H33.4931V25.146C32.9236 24.3917 31.4167 24.7931 31.4167 26.1078C31.4167 27.4502 32.9792 27.81 33.4931 27.0696V27.3879H34.0417V23.8105ZM34.5694 18.6138V18.9321H34.625V18.6138H34.7569V18.5585H34.4375V18.6138H34.5694ZM35.0278 27.1804C35.0278 27.1458 35.0278 27.1042 35.0069 27.0696C34.9861 27.0489 34.9722 27.0143 34.9514 26.9935C34.9306 26.9728 34.8958 26.9589 34.875 26.9382C34.8403 26.9382 34.7986 26.9174 34.7639 26.9174C34.7431 26.9174 34.7083 26.9382 34.6667 26.9382C34.6319 26.9589 34.6111 26.9728 34.5903 26.9935C34.5556 27.0143 34.5347 27.0489 34.5347 27.0696C34.5139 27.1042 34.5139 27.1458 34.5139 27.1804C34.5139 27.2011 34.5139 27.2357 34.5347 27.2772C34.5347 27.298 34.5556 27.3326 34.5903 27.3533C34.6111 27.3741 34.625 27.3879 34.6667 27.4087C34.7014 27.4295 34.7431 27.4295 34.7639 27.4295C34.7986 27.4295 34.8403 27.4295 34.875 27.4087C34.8958 27.3879 34.9306 27.3741 34.9514 27.3533C34.9722 27.3326 34.9861 27.298 35.0069 27.2772C35.0278 27.2357 35.0278 27.2011 35.0278 27.1804ZM35.25 18.5516H35.1528L35.0417 18.7937L34.9306 18.5516H34.8333V18.9252H34.8889V18.6415L35 18.8837H35.0764L35.1736 18.6415V18.9252H35.25V18.5516ZM35.5556 12.9812C35.5556 7.70848 31.2431 3.41138 25.9375 3.41138C24.0486 3.41138 22.1944 3.97879 20.625 5.00982C25.6319 9.11317 25.7083 16.877 20.625 20.9596C22.1944 21.9975 24.0625 22.558 25.9375 22.558C31.2431 22.565 35.5556 18.2748 35.5556 12.9812Z" fill="black"/>
</svg>
