<svg width="42" height="33" viewBox="0 0 42 33" fill="none" xmlns="http://www.w3.org/2000/svg">
    <path d="M35.2115 27.7922C35.2115 28.2931 34.876 28.654 34.3948 28.654C33.899 28.654 33.5781 28.271 33.5781 27.7922C33.5781 27.3134 33.899 26.9304 34.3948 26.9304C34.876 26.9304 35.2115 27.3134 35.2115 27.7922ZM12.549 26.9304C12.0312 26.9304 11.7323 27.3134 11.7323 27.7922C11.7323 28.271 12.0312 28.654 12.549 28.654C13.0229 28.654 13.3438 28.2931 13.3438 27.7922C13.3365 27.3134 13.0229 26.9304 12.549 26.9304ZM21.1167 26.9083C20.7229 26.9083 20.4823 27.1661 20.424 27.5491H21.8167C21.751 27.1292 21.4958 26.9083 21.1167 26.9083ZM28.9771 26.9304C28.4812 26.9304 28.1823 27.3134 28.1823 27.7922C28.1823 28.271 28.4812 28.654 28.9771 28.654C29.4729 28.654 29.7937 28.2931 29.7937 27.7922C29.7937 27.3134 29.4729 26.9304 28.9771 26.9304ZM36.699 28.8529C36.699 28.875 36.7208 28.8897 36.7208 28.9339C36.7208 28.956 36.699 28.9708 36.699 29.015C36.6771 29.0371 36.6771 29.0518 36.6625 29.0739C36.6406 29.096 36.626 29.1107 36.5823 29.1107C36.5604 29.1328 36.5458 29.1328 36.5021 29.1328C36.4802 29.1328 36.4656 29.1328 36.4219 29.1107C36.4 29.1107 36.3854 29.0886 36.3635 29.0739C36.3417 29.0518 36.3271 29.0371 36.3271 29.015C36.3052 28.9781 36.3052 28.956 36.3052 28.9339C36.3052 28.8971 36.3052 28.875 36.3271 28.8529C36.3271 28.8161 36.349 28.794 36.3635 28.7719C36.3854 28.7498 36.4 28.7498 36.4219 28.735C36.4583 28.7129 36.4802 28.7129 36.5021 28.7129C36.5385 28.7129 36.5604 28.7129 36.5823 28.735C36.6188 28.7571 36.6406 28.7571 36.6625 28.7719C36.6844 28.7866 36.6771 28.8161 36.699 28.8529ZM36.5385 28.956C36.575 28.956 36.575 28.9339 36.5969 28.9339C36.6187 28.9118 36.6188 28.8971 36.6188 28.875C36.6188 28.8529 36.6187 28.8382 36.5969 28.8161C36.575 28.8161 36.5604 28.794 36.5167 28.794H36.4V29.0518H36.4583V28.9487H36.4802L36.5604 29.0518H36.6188L36.5385 28.956ZM42 3.53571V29.4643C42 31.4163 40.4323 33 38.5 33H3.5C1.56771 33 0 31.4163 0 29.4643V3.53571C0 1.58371 1.56771 0 3.5 0H38.5C40.4323 0 42 1.58371 42 3.53571ZM4.66667 13.8188C4.66667 19.4538 9.19479 24.0208 14.7656 24.0208C16.749 24.0208 18.6958 23.4167 20.3438 22.3192C15.0281 17.9511 15.0646 9.70848 20.3438 5.3404C18.6958 4.23549 16.749 3.63884 14.7656 3.63884C9.19479 3.63147 4.66667 8.2058 4.66667 13.8188ZM21 21.833C26.1406 17.7817 26.1187 9.88527 21 5.81183C15.8812 9.88527 15.8594 17.7891 21 21.833ZM10.624 27.4534C10.624 26.8125 10.2083 26.3926 9.55208 26.3705C9.21667 26.3705 8.85937 26.4737 8.61875 26.8493C8.44375 26.5473 8.14479 26.3705 7.72917 26.3705C7.45208 26.3705 7.175 26.4737 6.95625 26.7683V26.4442H6.35833V29.1475H6.95625C6.95625 27.7554 6.77396 26.923 7.6125 26.923C8.35625 26.923 8.21042 27.6743 8.21042 29.1475H8.78646C8.78646 27.7996 8.60417 26.923 9.44271 26.923C10.1865 26.923 10.0406 27.6596 10.0406 29.1475H10.6385V27.4534H10.624ZM13.8979 26.4442H13.3219V26.7683C13.125 26.5252 12.8479 26.3705 12.4688 26.3705C11.7177 26.3705 11.1417 26.9746 11.1417 27.7922C11.1417 28.6172 11.7177 29.2138 12.4688 29.2138C12.8479 29.2138 13.125 29.0739 13.3219 28.8161V29.1549H13.8979V26.4442ZM16.851 28.3299C16.851 27.225 15.1812 27.7259 15.1812 27.2103C15.1812 26.7904 16.049 26.8567 16.5302 27.1292L16.7708 26.6504C16.0854 26.2011 14.5687 26.2085 14.5687 27.2545C14.5687 28.3078 16.2385 27.8658 16.2385 28.3594C16.2385 28.8234 15.2542 28.7866 14.7292 28.4183L14.474 28.8824C15.2906 29.4422 16.851 29.3243 16.851 28.3299ZM19.4323 29.015L19.2719 28.5141C18.9948 28.6688 18.3823 28.8382 18.3823 28.2121V26.9893H19.3375V26.4442H18.3823V25.6192H17.7844V26.4442H17.2302V26.9819H17.7844V28.2121C17.7844 29.5085 19.0458 29.2728 19.4323 29.015ZM20.4021 28.0279H22.4073C22.4073 26.8346 21.8677 26.3632 21.1385 26.3632C20.3656 26.3632 19.8115 26.9451 19.8115 27.7848C19.8115 29.2949 21.4594 29.5453 22.276 28.8308L21.999 28.3888C21.4302 28.8603 20.5698 28.8161 20.4021 28.0279ZM24.7115 26.4442C24.376 26.2969 23.8656 26.3116 23.6031 26.7683V26.4442H23.0052V29.1475H23.6031V27.6228C23.6031 26.7683 24.2958 26.8788 24.5365 27.004L24.7115 26.4442ZM25.4844 27.7922C25.4844 26.9525 26.3302 26.6799 26.9937 27.1734L27.2708 26.6946C26.425 26.0243 24.8865 26.3926 24.8865 27.7996C24.8865 29.258 26.5198 29.5527 27.2708 28.9045L26.9937 28.4257C26.3229 28.9045 25.4844 28.6172 25.4844 27.7922ZM30.3479 26.4442H29.75V26.7683C29.1448 25.958 27.5698 26.4147 27.5698 27.7922C27.5698 29.2065 29.2031 29.6116 29.75 28.8161V29.1549H30.3479V26.4442ZM32.8052 26.4442C32.6302 26.3558 32.0031 26.2306 31.6969 26.7683V26.4442H31.1208V29.1475H31.6969V27.6228C31.6969 26.8125 32.3531 26.8641 32.6302 27.004L32.8052 26.4442ZM35.7438 25.3467H35.1677V26.7683C34.5698 25.9654 32.9875 26.3926 32.9875 27.7922C32.9875 29.2212 34.6281 29.6042 35.1677 28.8161V29.1549H35.7438V25.3467ZM36.2979 19.8147V20.1536H36.3563V19.8147H36.4948V19.7558H36.1594V19.8147H36.2979ZM36.7792 28.9339C36.7792 28.8971 36.7792 28.8529 36.7573 28.8161C36.7354 28.794 36.7208 28.7571 36.699 28.735C36.6771 28.7129 36.6406 28.6982 36.6188 28.6761C36.5823 28.6761 36.5385 28.654 36.5021 28.654C36.4802 28.654 36.4437 28.6761 36.4 28.6761C36.3635 28.6982 36.3417 28.7129 36.3198 28.735C36.2833 28.7571 36.2615 28.794 36.2615 28.8161C36.2396 28.8529 36.2396 28.8971 36.2396 28.9339C36.2396 28.956 36.2396 28.9929 36.2615 29.0371C36.2615 29.0592 36.2833 29.096 36.3198 29.1181C36.3417 29.1402 36.3563 29.1549 36.4 29.177C36.4365 29.1991 36.4802 29.1991 36.5021 29.1991C36.5385 29.1991 36.5823 29.1991 36.6188 29.177C36.6406 29.1549 36.6771 29.1402 36.699 29.1181C36.7208 29.096 36.7354 29.0592 36.7573 29.0371C36.7792 28.9929 36.7792 28.956 36.7792 28.9339ZM37.0125 19.7484H36.9104L36.7938 20.0063L36.6771 19.7484H36.575V20.1462H36.6333V19.8442L36.75 20.102H36.8302L36.9323 19.8442V20.1462H37.0125V19.7484ZM37.3333 13.8188C37.3333 8.2058 32.8052 3.63147 27.2344 3.63147C25.251 3.63147 23.3042 4.23549 21.6562 5.33304C26.9135 9.70112 26.9937 17.9658 21.6562 22.3118C23.3042 23.4167 25.2656 24.0134 27.2344 24.0134C32.8052 24.0208 37.3333 19.4538 37.3333 13.8188Z" fill="#F4F4F2"/>
    </svg>
    