<svg width="42" height="33" viewBox="0 0 42 33" fill="none" xmlns="http://www.w3.org/2000/svg">
    <path d="M35.9042 13.9071C35.2552 13.9071 34.5406 14.4007 34.5406 15.5792H37.2167C37.2167 14.4007 36.5385 13.9071 35.9042 13.9071ZM27.3438 14.0987C26.7458 14.0987 26.374 14.3123 26.1042 14.6143L26.1187 18.5036C26.374 18.7761 26.7385 18.9971 27.3438 18.9971C28.299 18.9971 28.9406 17.9438 28.9406 16.5368C28.9406 15.1667 28.2844 14.0913 27.3438 14.0987ZM38.5 0H3.5C1.56771 0 0 1.58371 0 3.53571V29.4643C0 31.4163 1.56771 33 3.5 33H38.5C40.4323 33 42 31.4163 42 29.4643V3.53571C42 1.58371 40.4323 0 38.5 0ZM8.91042 18.3489C8.91042 20.2346 7.43021 21.3027 5.27187 21.3174C4.38229 21.3174 3.40521 21.1406 2.44271 20.7208V18.2237C3.31771 18.6951 4.41875 19.056 5.27917 19.056C5.85521 19.056 6.27083 18.9013 6.27083 18.4152C6.27083 17.1629 2.33333 17.6344 2.33333 14.7395C2.33333 12.8833 3.73333 11.7783 5.83333 11.7783C6.69375 11.7783 7.54688 11.9109 8.40729 12.2571V14.7174C7.61979 14.2902 6.62083 14.0471 5.83333 14.0471C5.28646 14.0471 4.95104 14.2092 4.95104 14.6143C4.95104 15.7929 8.91042 15.233 8.91042 18.3489ZM13.9271 14.1797H11.9583V17.8996C11.9583 19.4391 13.599 18.9603 13.9271 18.8277V20.9565C13.5844 21.148 12.9573 21.3027 12.1115 21.3027C10.5729 21.3027 9.42083 20.1609 9.42083 18.6141L9.43542 10.2241L11.9656 9.67902V11.9478H13.9271V14.1797ZM19.3229 14.3565C18.9948 14.246 17.9594 14.0913 17.3469 14.9016V21.1185H14.7583V11.9478H16.9969L17.1573 12.7212C17.7625 11.5942 18.9729 11.8225 19.3156 11.9478H19.3229V14.3565ZM22.5385 21.1185H19.9354V11.9478H22.5385V21.1185ZM22.5385 10.5924L19.9354 11.1522V9.02344L22.5385 8.46362V10.5924ZM27.9417 21.31C27.0375 21.31 26.4833 20.9196 26.1115 20.6471L26.1042 23.6083L23.5156 24.1607V11.9478H25.7979L25.9292 12.596C26.2865 12.2645 26.9427 11.7783 27.9562 11.7783C29.7719 11.7783 31.4854 13.4357 31.4854 16.4779C31.4854 19.8 29.7938 21.3027 27.9417 21.31ZM39.6375 17.5165H34.5698C34.6865 18.7393 35.576 19.1002 36.5823 19.1002C37.6104 19.1002 38.4198 18.8792 39.1271 18.5183V20.625C38.4198 21.0154 37.4937 21.3027 36.2542 21.3027C33.7313 21.3027 31.9667 19.7042 31.9667 16.5516C31.9667 13.885 33.4615 11.771 35.926 11.771C38.3833 11.771 39.6667 13.885 39.6667 16.5663C39.6667 16.8241 39.6448 17.3692 39.6375 17.5165Z" fill="#F4F4F2"/>
    </svg>
    