<svg width="40" height="31" viewBox="0 0 40 31" fill="none" xmlns="http://www.w3.org/2000/svg">
<path d="M34.1944 13.0643C33.5764 13.0643 32.8958 13.5279 32.8958 14.635H35.4444C35.4444 13.5279 34.7986 13.0643 34.1944 13.0643ZM26.0417 13.2442C25.4722 13.2442 25.1181 13.4449 24.8611 13.7286L24.875 17.3821C25.1181 17.6382 25.4653 17.8458 26.0417 17.8458C26.9514 17.8458 27.5625 16.8562 27.5625 15.5346C27.5625 14.2475 26.9375 13.2373 26.0417 13.2442ZM36.6667 0H3.33333C1.49306 0 0 1.48772 0 3.32143V27.6786C0 29.5123 1.49306 31 3.33333 31H36.6667C38.5069 31 40 29.5123 40 27.6786V3.32143C40 1.48772 38.5069 0 36.6667 0ZM8.48611 17.2368C8.48611 19.0083 7.07639 20.0116 5.02083 20.0254C4.17361 20.0254 3.24306 19.8594 2.32639 19.465V17.1192C3.15972 17.5621 4.20833 17.9011 5.02778 17.9011C5.57639 17.9011 5.97222 17.7558 5.97222 17.2991C5.97222 16.1228 2.22222 16.5656 2.22222 13.8462C2.22222 12.1025 3.55556 11.0645 5.55556 11.0645C6.375 11.0645 7.1875 11.1891 8.00694 11.5143V13.8254C7.25695 13.4241 6.30556 13.1958 5.55556 13.1958C5.03472 13.1958 4.71528 13.348 4.71528 13.7286C4.71528 14.8357 8.48611 14.3098 8.48611 17.2368ZM13.2639 13.3203H11.3889V16.8147C11.3889 18.2609 12.9514 17.8112 13.2639 17.6866V19.6864C12.9375 19.8663 12.3403 20.0116 11.5347 20.0116C10.0694 20.0116 8.97222 18.9391 8.97222 17.4859L8.98611 9.60446L11.3958 9.09241V11.2237H13.2639V13.3203ZM18.4028 13.4864C18.0903 13.3826 17.1042 13.2373 16.5208 13.9984V19.8386H14.0556V11.2237H16.1875L16.3403 11.9502C16.9167 10.8915 18.0694 11.106 18.3958 11.2237H18.4028V13.4864ZM21.4653 19.8386H18.9861V11.2237H21.4653V19.8386ZM21.4653 9.95045L18.9861 10.4763V8.47656L21.4653 7.95067V9.95045ZM26.6111 20.0185C25.75 20.0185 25.2222 19.6518 24.8681 19.3958L24.8611 22.1775L22.3958 22.6964V11.2237H24.5694L24.6944 11.8326C25.0347 11.5212 25.6597 11.0645 26.625 11.0645C28.3542 11.0645 29.9861 12.6214 29.9861 15.4792C29.9861 18.6 28.375 20.0116 26.6111 20.0185ZM37.75 16.4549H32.9236C33.0347 17.6036 33.8819 17.9426 34.8403 17.9426C35.8194 17.9426 36.5903 17.735 37.2639 17.396V19.375C36.5903 19.7417 35.7083 20.0116 34.5278 20.0116C32.125 20.0116 30.4444 18.51 30.4444 15.5484C30.4444 13.0435 31.8681 11.0576 34.2153 11.0576C36.5556 11.0576 37.7778 13.0435 37.7778 15.5623C37.7778 15.8045 37.7569 16.3165 37.75 16.4549Z" fill="black"/>
</svg>
