<svg width="42" height="33" viewBox="0 0 42 33" fill="none" xmlns="http://www.w3.org/2000/svg">
    <path d="M34.2781 14.6806C34.2781 14.6806 34.8323 17.4208 34.9562 17.9953H32.5208C32.7615 17.3397 33.6875 14.7911 33.6875 14.7911C33.6729 14.8132 33.9281 14.1208 34.074 13.6935L34.2781 14.6806ZM42 3.53571V29.4643C42 31.4163 40.4323 33 38.5 33H3.5C1.56771 33 0 31.4163 0 29.4643V3.53571C0 1.58371 1.56771 0 3.5 0H38.5C40.4323 0 42 1.58371 42 3.53571ZM11.1198 22.0393L15.7281 10.6071H12.6292L9.76354 18.4152L9.45 16.8315L8.42917 11.5721C8.26146 10.8429 7.74375 10.6366 7.10208 10.6071H2.38437L2.33333 10.8355C3.48542 11.1301 4.51354 11.5574 5.41042 12.0951L8.02083 22.0393H11.1198ZM18.0031 22.054L19.8406 10.6071H16.9094L15.0792 22.054H18.0031ZM28.2042 18.3121C28.2187 17.0083 27.4312 16.0138 25.7469 15.1962C24.7188 14.6732 24.0917 14.3196 24.0917 13.7819C24.1062 13.2958 24.624 12.7949 25.776 12.7949C26.7312 12.7728 27.4312 13.0011 27.9562 13.2295L28.2187 13.3547L28.6198 10.8797C28.0437 10.6513 27.125 10.3935 25.9948 10.3935C23.1 10.3935 21.0656 11.9551 21.051 14.1797C21.0292 15.8223 22.5094 16.7357 23.6177 17.2882C24.7479 17.848 25.1344 18.2163 25.1344 18.7098C25.1198 19.4759 24.2156 19.8295 23.3771 19.8295C22.2104 19.8295 21.5833 19.6453 20.6281 19.2181L20.2417 19.0339L19.8333 21.6047C20.5187 21.9214 21.7875 22.2013 23.1 22.2161C26.1771 22.2234 28.1823 20.6839 28.2042 18.3121ZM38.5 22.054L36.1375 10.6071H33.8698C33.1698 10.6071 32.6375 10.8134 32.3385 11.5574L27.9854 22.054H31.0625C31.0625 22.054 31.5656 20.6397 31.675 20.3377H35.4375C35.525 20.7429 35.7875 22.054 35.7875 22.054H38.5Z" fill="#F4F4F2"/>
    </svg>
    