<svg width="55" height="49" viewBox="0 0 55 49" fill="none" xmlns="http://www.w3.org/2000/svg">
    <path d="M9.20253 0C10.3049 0 11.2539 0.783809 11.4648 1.86717L11.6086 3.0625H51.9368C53.8827 3.0625 55.4356 5.00049 54.8892 6.95379L49.7128 25.3326C49.339 26.6533 48.1311 27.5625 46.7603 27.5625H16.3632L17.2452 32.1562H46.7795C48.0545 32.1562 49.0802 33.1803 49.0802 34.4531C49.0802 35.726 48.0545 36.75 46.7795 36.75H15.2513C14.2352 36.75 13.2861 35.9652 13.0753 34.8838L7.29876 4.59375H2.30063C1.03049 4.59375 0 3.56494 0 2.29688C0 1.02881 1.03049 0 2.30063 0H9.20253ZM12.27 44.4062C12.27 41.8701 14.331 39.8125 16.8713 39.8125C19.4116 39.8125 21.4726 41.8701 21.4726 44.4062C21.4726 46.9424 19.4116 49 16.8713 49C14.331 49 12.27 46.9424 12.27 44.4062ZM49.0802 44.4062C49.0802 46.9424 47.0192 49 44.4789 49C41.9386 49 39.8776 46.9424 39.8776 44.4062C39.8776 41.8701 41.9386 39.8125 44.4789 39.8125C47.0192 39.8125 49.0802 41.8701 49.0802 44.4062Z" fill="#F4F4F2"/>
    </svg>
    