<svg width="33" height="26" viewBox="0 0 33 26" fill="none" xmlns="http://www.w3.org/2000/svg">
<path d="M29.3333 0C31.3557 0 33 1.66272 33 3.71429V5.57143H0V3.71429C0 1.66272 1.64141 0 3.66667 0H29.3333ZM33 22.2857C33 24.3344 31.3557 26 29.3333 26H3.66667C1.64141 26 0 24.3344 0 22.2857V11.1429H33V22.2857ZM6.41667 18.5714C5.9125 18.5714 5.5 18.9893 5.5 19.5C5.5 20.0107 5.9125 20.4286 6.41667 20.4286H10.0833C10.5875 20.4286 11 20.0107 11 19.5C11 18.9893 10.5875 18.5714 10.0833 18.5714H6.41667ZM13.75 20.4286H21.0833C21.5875 20.4286 22 20.0107 22 19.5C22 18.9893 21.5875 18.5714 21.0833 18.5714H13.75C13.2458 18.5714 12.8333 18.9893 12.8333 19.5C12.8333 20.0107 13.2458 20.4286 13.75 20.4286Z" fill="#F4F4F2"/>
</svg>
