<svg width="33" height="23" viewBox="0 0 33 23" fill="none" xmlns="http://www.w3.org/2000/svg">
<path d="M29.3333 0C31.3557 0 33 1.42187 33 3.17625V4.76437H0V3.17625C0 1.42187 1.64141 0 3.66667 0H29.3333ZM33 19.0575C33 20.8094 31.3557 22.2337 29.3333 22.2337H3.66667C1.64141 22.2337 0 20.8094 0 19.0575V9.52875H33V19.0575ZM6.41667 15.8813C5.9125 15.8813 5.5 16.2386 5.5 16.6753C5.5 17.112 5.9125 17.4694 6.41667 17.4694H10.0833C10.5875 17.4694 11 17.112 11 16.6753C11 16.2386 10.5875 15.8813 10.0833 15.8813H6.41667ZM13.75 17.4694H21.0833C21.5875 17.4694 22 17.112 22 16.6753C22 16.2386 21.5875 15.8813 21.0833 15.8813H13.75C13.2458 15.8813 12.8333 16.2386 12.8333 16.6753C12.8333 17.112 13.2458 17.4694 13.75 17.4694Z" fill="#495464"/>
</svg>
