<svg width="18" height="12" viewBox="0 0 18 12" fill="none" xmlns="http://www.w3.org/2000/svg">
<path d="M9 8.5611C8.41887 8.5611 7.83773 8.39992 7.34203 8.07329L0 3.24608V9.98795C0 10.7757 0.755508 11.4148 1.6875 11.4148H16.3125C17.2445 11.4148 18 10.776 18 9.98795V3.24608L10.6594 8.07656C10.1637 8.40058 9.58008 8.5611 9 8.5611ZM0.572695 2.41673L8.03285 7.32449C8.60203 7.69904 9.39937 7.69904 9.96855 7.32449L17.4287 2.41673C17.7574 2.17892 18 1.81329 18 1.42685C18 0.638812 17.2441 0 16.3125 0H1.6875C0.755508 0 0 0.638812 0 1.42685C0 1.81329 0.211289 2.17892 0.572695 2.41673Z" fill="#495464"/>
</svg>
