<svg width="48" height="48" viewBox="0 0 48 48" fill="none" xmlns="http://www.w3.org/2000/svg">
    <g clip-path="url(#clip0_44_18)">
    <path d="M47.925 36.2812L45.7453 45.7312C45.4391 47.0671 44.265 48.0018 42.8897 48.0018C19.2375 47.9999 0 28.7624 0 5.10929C0 3.73491 0.934594 2.55929 2.27062 2.2546L11.7206 0.074911C13.0969 -0.244026 14.5031 0.470348 15.075 1.77366L19.4363 11.9455C19.9461 13.1437 19.6022 14.5396 18.5944 15.3627L13.5469 19.4155C16.7325 25.9049 22.0088 31.1812 28.5 34.3687L32.6325 29.3249C33.447 28.3143 34.8534 27.9646 36.0516 28.4835L46.2234 32.8438C47.4469 33.4874 48.2438 34.9124 47.925 36.2812Z" fill="#F4F4F2"/>
    </g>
    <defs>
    <clipPath id="clip0_44_18">
    <rect width="48" height="48" fill="white"/>
    </clipPath>
    </defs>
    </svg>
    