<svg width="13" height="12" viewBox="0 0 13 12" fill="none" xmlns="http://www.w3.org/2000/svg">
<path d="M12.9809 8.62768L12.3905 10.8748C12.3076 11.1925 11.9896 11.4148 11.6171 11.4148C5.21065 11.4143 0 6.83974 0 1.21512C0 0.8883 0.253143 0.608741 0.615019 0.536287L3.17464 0.0179659C3.54741 -0.0578762 3.9283 0.111999 4.0832 0.421922L5.26448 2.84076C5.40257 3.12567 5.30943 3.45761 5.03645 3.65335L3.66929 4.61709C4.53215 6.16024 5.96127 7.41491 7.71948 8.17289L8.83881 6.97351C9.05942 6.73318 9.44037 6.65003 9.76489 6.77342L12.52 7.81029C12.8514 7.96333 13.0673 8.30219 12.9809 8.62768Z" fill="#495464"/>
</svg>
