<svg width="37" height="50" viewBox="0 0 37 50" fill="none" xmlns="http://www.w3.org/2000/svg">
    <path d="M16.2164 48.8765C11.1867 42.5907 0 27.356 0 18.7986C0 8.41631 8.2826 0 18.5 0C28.7135 0 37 8.41631 37 18.7986C37 27.356 25.7266 42.5907 20.7836 48.8765C19.5984 50.3745 17.4016 50.3745 16.2164 48.8765ZM18.5 25.0649C21.9013 25.0649 24.6667 22.2549 24.6667 18.7986C24.6667 15.3424 21.9013 12.5324 18.5 12.5324C15.0987 12.5324 12.3333 15.3424 12.3333 18.7986C12.3333 22.2549 15.0987 25.0649 18.5 25.0649Z" fill="#F4F4F2"/>
    </svg>
    