<svg width="60" height="63" viewBox="0 0 60 63" fill="none" xmlns="http://www.w3.org/2000/svg">
<path d="M12.209 16H47.3076C47.4752 16 47.6424 16.014 47.8076 16.042L52.626 16.8574C52.8953 16.903 53.1572 16.9851 53.4043 17.1016L56.2793 18.457C57.3297 18.9523 58 20.0096 58 21.1709V58C58 59.6569 56.6569 61 55 61H5C3.34315 61 2 59.6569 2 58V20.9561L2.00684 20.752C2.0759 19.738 2.65607 18.8224 3.55469 18.3281L5.65039 17.1748C5.95518 17.0072 6.28723 16.8938 6.63086 16.8398L11.7432 16.0361C11.8971 16.012 12.0531 16 12.209 16Z" fill="none" stroke="#495464" stroke-width="4"/>
<circle cx="45" cy="29" r="2" fill="#495464"/>
<circle cx="51" cy="29" r="2" fill="#495464"/>
<rect x="13" y="37" width="34" height="3" rx="1.5" fill="#495464"/>
<path d="M45 14V5C45 2.79086 43.2091 1 41 1H20C17.7909 1 16 2.79086 16 5V14" stroke="#495464" stroke-width="2"/>
<path d="M45 40V52C45 54.2091 43.2091 56 41 56H20C17.7909 56 16 54.2091 16 52V40" stroke="#495464" stroke-width="2"/>
</svg>
