<svg width="22" height="26" viewBox="0 0 22 26" fill="none" xmlns="http://www.w3.org/2000/svg">
<path d="M0.800365 0.107591C1.28849 -0.0842699 1.86198 -0.0157467 2.2699 0.283088L4.58333 1.97887L6.89792 0.283088C7.41354 -0.0943627 8.16979 -0.0943627 8.68542 0.283088L11 1.97887L13.3146 0.283088C13.8302 -0.0943627 14.5865 -0.0943627 15.1021 0.283088L17.4167 1.97887L19.7313 0.283088C20.138 -0.0157467 20.7109 -0.0842699 21.1979 0.107591C21.6849 0.299501 22 0.716784 22 1.17586V23.9091C22 24.3697 21.6849 24.7861 21.1979 24.9772C20.7109 25.1683 20.138 25.0997 19.7313 24.8008L17.4167 23.1056L15.1021 24.8008C14.5865 25.1781 13.8302 25.1781 13.3146 24.8008L11 23.1056L8.68542 24.8008C8.16979 25.1781 7.41354 25.1781 6.89792 24.8008L4.58333 23.1056L2.2699 24.8008C1.86198 25.0997 1.28849 25.1683 0.800365 24.9772C0.312583 24.7861 0 24.3697 0 23.9091V1.17586C0 0.716784 0.312583 0.299452 0.800365 0.107591ZM5.5 7.05515C4.99354 7.05515 4.58333 7.40791 4.58333 7.83906C4.58333 8.27021 4.99354 8.62296 5.5 8.62296H16.5C17.0042 8.62296 17.4167 8.27021 17.4167 7.83906C17.4167 7.40791 17.0042 7.05515 16.5 7.05515H5.5ZM5.5 18.0298H16.5C17.0042 18.0298 17.4167 17.6771 17.4167 17.2459C17.4167 16.8148 17.0042 16.462 16.5 16.462H5.5C4.99354 16.462 4.58333 16.8148 4.58333 17.2459C4.58333 17.6771 4.99354 18.0298 5.5 18.0298ZM5.5 11.7586C4.99354 11.7586 4.58333 12.1113 4.58333 12.5425C4.58333 12.9736 4.99354 13.3264 5.5 13.3264H16.5C17.0042 13.3264 17.4167 12.9736 17.4167 12.5425C17.4167 12.1113 17.0042 11.7586 16.5 11.7586H5.5Z" fill="#495464"/>
</svg>
