<svg width="23" height="30" viewBox="0 0 23 30" fill="none" xmlns="http://www.w3.org/2000/svg">
<path d="M0.818555 0.128676C1.31777 -0.100785 1.9043 -0.0188327 2.32148 0.338566L4.6875 2.36668L7.05469 0.338566C7.58203 -0.112855 8.35547 -0.112855 8.88281 0.338566L11.25 2.36668L13.6172 0.338566C14.1445 -0.112855 14.918 -0.112855 15.4453 0.338566L17.8125 2.36668L20.1797 0.338566C20.5957 -0.0188327 21.1816 -0.100785 21.6797 0.128676C22.1777 0.358195 22.5 0.857255 22.5 1.4063V28.5947C22.5 29.1455 22.1777 29.6435 21.6797 29.8721C21.1816 30.1006 20.5957 30.0186 20.1797 29.6611L17.8125 27.6337L15.4453 29.6611C14.918 30.1123 14.1445 30.1123 13.6172 29.6611L11.25 27.6337L8.88281 29.6611C8.35547 30.1123 7.58203 30.1123 7.05469 29.6611L4.6875 27.6337L2.32148 29.6611C1.9043 30.0186 1.31777 30.1006 0.818555 29.8721C0.319688 29.6435 0 29.1455 0 28.5947V1.4063C0 0.857255 0.319688 0.358137 0.818555 0.128676ZM5.625 8.43778C5.10703 8.43778 4.6875 8.85967 4.6875 9.37531C4.6875 9.89095 5.10703 10.3128 5.625 10.3128H16.875C17.3906 10.3128 17.8125 9.89095 17.8125 9.37531C17.8125 8.85967 17.3906 8.43778 16.875 8.43778H5.625ZM5.625 21.5632H16.875C17.3906 21.5632 17.8125 21.1413 17.8125 20.6257C17.8125 20.11 17.3906 19.6881 16.875 19.6881H5.625C5.10703 19.6881 4.6875 20.11 4.6875 20.6257C4.6875 21.1413 5.10703 21.5632 5.625 21.5632ZM5.625 14.063C5.10703 14.063 4.6875 14.4848 4.6875 15.0005C4.6875 15.5161 5.10703 15.938 5.625 15.938H16.875C17.3906 15.938 17.8125 15.5161 17.8125 15.0005C17.8125 14.4848 17.3906 14.063 16.875 14.063H5.625Z" fill="#F4F4F2"/>
</svg>
