<svg width="22" height="22" viewBox="0 0 22 22" fill="none" xmlns="http://www.w3.org/2000/svg">
<path d="M21.4973 19.0632L16.3539 13.9204C17.5235 12.1842 18.1006 10.0149 17.7917 7.70346C17.2649 3.77181 14.0422 0.572268 10.1062 0.0740125C4.2543 -0.666389 -0.666497 4.25387 0.0740287 10.1052C0.572468 14.0424 3.77279 17.2673 7.70531 17.7914C10.017 18.1003 12.187 17.5235 13.9229 16.3539L19.0663 21.4967C19.7375 22.1678 20.8259 22.1678 21.497 21.4967C22.1676 20.8247 22.1676 19.7334 21.4973 19.0632ZM3.39879 8.93653C3.39879 5.90412 5.86607 3.43712 8.89881 3.43712C11.9316 3.43712 14.3988 5.90412 14.3988 8.93653C14.3988 11.9689 11.9316 14.4359 8.89881 14.4359C5.86607 14.4359 3.39879 11.9698 3.39879 8.93653Z" fill="black"/>
</svg>
